<?xml version="1.0" encoding="UTF-8"?>
<svg version="1.1" xmlns="http://www.w3.org/2000/svg" width="500" height="500">
<path d="M0 0 C0.83845459 0.0196582 1.67690918 0.03931641 2.54077148 0.05957031 C15.4415657 0.58358473 27.68081342 4.78665651 39.125 10.625 C39.125 11.285 39.125 11.945 39.125 12.625 C39.66125 12.7075 40.1975 12.79 40.75 12.875 C43.98495815 13.89656573 46.35073148 15.68301203 49.125 17.625 C50.23875 18.32625 51.3525 19.0275 52.5 19.75 C53.36625 20.36875 54.2325 20.9875 55.125 21.625 C55.125 22.285 55.125 22.945 55.125 23.625 C55.785 23.625 56.445 23.625 57.125 23.625 C57.125 24.285 57.125 24.945 57.125 25.625 C57.785 25.625 58.445 25.625 59.125 25.625 C59.125 26.285 59.125 26.945 59.125 27.625 C59.785 27.625 60.445 27.625 61.125 27.625 C61.125 28.285 61.125 28.945 61.125 29.625 C61.785 29.625 62.445 29.625 63.125 29.625 C65.68743332 32.78841639 67.85235556 36.24931475 70.125 39.625 C70.65867187 40.35460937 71.19234375 41.08421875 71.7421875 41.8359375 C80.27205808 53.72472085 86.82426747 72.81709776 85.125 87.625 C83.93999873 90.8837535 83.05118992 92.86420114 80.375 95.0625 C76.34050035 96.07112491 72.68951552 95.4086931 68.99609375 93.55859375 C66.26069369 90.73182333 66.15512941 87.62475659 65.6875 83.875 C63.64388097 70.60560921 59.69068336 59.52021193 52.015625 48.453125 C50.125 45.625 50.125 45.625 49.125 42.625 C47.80590483 41.93058646 46.46946284 41.26892694 45.125 40.625 C43.54952931 39.31031541 42.00903785 37.95293455 40.5 36.5625 C37.53710833 33.76719542 37.53710833 33.76719542 34.125 31.625 C34.125 30.965 34.125 30.305 34.125 29.625 C33.361875 29.398125 32.59875 29.17125 31.8125 28.9375 C28.74096652 27.84424232 25.98586238 26.60644198 23.0625 25.1875 C14.73897471 21.35981082 6.24243189 19.26312097 -2.9296875 19.65234375 C-5.80649731 19.61190666 -8.23748897 18.70705581 -10.875 17.625 C-10.875 16.965 -10.875 16.305 -10.875 15.625 C-11.535 15.625 -12.195 15.625 -12.875 15.625 C-13.18190549 14.25759929 -13.44382399 12.88007163 -13.6875 11.5 C-13.83832031 10.73429688 -13.98914063 9.96859375 -14.14453125 9.1796875 C-13.81423373 6.04904141 -12.66238377 4.14701868 -10.54467773 1.83349609 C-7.31438542 -0.50455727 -3.84687653 -0.16774059 0 0 Z " fill="#F0F2EF" transform="translate(237.875,138.375)"/>
<path d="M0 0 C7.44820884 2.66382999 14.53597848 6.04996372 20.7578125 11 C20.7578125 11.66 20.7578125 12.32 20.7578125 13 C21.34949219 13.26941406 21.94117188 13.53882813 22.55078125 13.81640625 C34.49574369 20.22228876 40.01258505 34.85122502 43.7578125 47 C44.94571223 51.29075238 45.17853544 55.50900075 45.4453125 59.9375 C45.50525391 60.73607422 45.56519531 61.53464844 45.62695312 62.35742188 C45.94833655 67.67125466 45.72419695 71.39525307 42.41015625 75.78515625 C40.28044063 77.35097553 38.94732271 77.43306997 36.3203125 77.4375 C35.55847656 77.45683594 34.79664063 77.47617188 34.01171875 77.49609375 C30.88996237 76.80898273 29.79546177 75.42941545 27.7578125 73 C27.03173828 70.53320312 27.03173828 70.53320312 26.703125 67.78125 C26.56688721 66.7720752 26.43064941 65.76290039 26.2902832 64.72314453 C26.15581787 63.65950684 26.02135254 62.59586914 25.8828125 61.5 C23.60981009 46.16377845 18.84356129 35.34186709 6.56640625 25.1875 C-3.14617133 18.23753393 -12.52000469 16.49071802 -24.24926758 16.50268555 C-28.42977973 16.44630724 -30.66200487 16.36391918 -34.28125 14.09375 C-37.3470916 10.82026175 -37.57588674 8.4611559 -37.53515625 3.97265625 C-37.2421875 2 -37.2421875 2 -35.3671875 -0.4375 C-26.79198262 -6.74279771 -9.39114276 -2.89654524 0 0 Z " fill="#EFF1EE" transform="translate(246.2421875,175)"/>
<path d="M0 0 C1.20635059 0.78423897 2.40279746 1.58579434 3.5625 2.4375 C3.5625 3.0975 3.5625 3.7575 3.5625 4.4375 C4.2225 4.4375 4.8825 4.4375 5.5625 4.4375 C12.0248504 12.71738645 11.5625 18.70948642 11.5625 29.4375 C-0.9775 29.4375 -13.5175 29.4375 -26.4375 29.4375 C-23.35669076 35.90904358 -23.35669076 35.90904358 -17.4375 38.4375 C-12.38667071 38.96916624 -9.49412665 38.50737963 -5.4375 35.4375 C-4.06765802 34.14170353 -2.7223951 32.81757251 -1.4375 31.4375 C0.21510442 32.00136503 1.85951637 32.58928717 3.5 33.1875 C4.41652344 33.51234375 5.33304687 33.8371875 6.27734375 34.171875 C8.5625 35.4375 8.5625 35.4375 9.5546875 37.34375 C9.56528258 40.18323073 8.64249616 41.11328876 6.75 43.1875 C5.93595703 44.10789062 5.93595703 44.10789062 5.10546875 45.046875 C3.5625 46.4375 3.5625 46.4375 1.5625 46.4375 C1.5625 47.0975 1.5625 47.7575 1.5625 48.4375 C-6.04987709 53.0585636 -13.70406943 53.51639025 -22.4375 52.4375 C-30.25922154 49.96214325 -35.86979707 45.2026384 -40.4375 38.4375 C-43.86672215 27.819748 -43.06372881 18.49312234 -38.4375 8.4375 C-30.68358664 -4.30107195 -12.49402356 -6.98078777 0 0 Z M-24.4375 13.4375 C-25.0975 15.0875 -25.7575 16.7375 -26.4375 18.4375 C-19.1775 18.4375 -11.9175 18.4375 -4.4375 18.4375 C-5.46174411 14.34052355 -6.4066471 12.9670227 -9.6953125 10.42578125 C-15.2309789 7.28559381 -20.0294 9.64448373 -24.4375 13.4375 Z " fill="#E9ECE8" transform="translate(304.4375,304.5625)"/>
<path d="M0 0 C1.63001953 0.01353516 1.63001953 0.01353516 3.29296875 0.02734375 C4.12441406 0.03894531 4.95585937 0.05054688 5.8125 0.0625 C6.4725 1.3825 7.1325 2.7025 7.8125 4.0625 C9.06546875 3.08603516 9.06546875 3.08603516 10.34375 2.08984375 C13.96327453 -0.31573813 16.95938566 -0.44135845 21.3125 -0.375 C23.21515625 -0.37306641 23.21515625 -0.37306641 25.15625 -0.37109375 C30.58806222 0.27306347 33.76104094 1.98714414 37.5625 5.875 C41.72297854 11.76901126 42.09768186 16.99400146 42.0078125 23.9609375 C42.0049826 24.79589752 42.00215271 25.63085754 41.99923706 26.49111938 C41.98810301 29.14006291 41.96301127 31.78865984 41.9375 34.4375 C41.92746143 36.24088051 41.91833712 38.04426636 41.91015625 39.84765625 C41.8881859 44.25273633 41.85370321 48.65755953 41.8125 53.0625 C36.5325 53.0625 31.2525 53.0625 25.8125 53.0625 C25.75642578 49.45054687 25.75642578 49.45054687 25.69921875 45.765625 C25.6529836 43.42894499 25.60175736 41.09242391 25.55004883 38.75585938 C25.51683165 37.13421314 25.48878965 35.51245219 25.46606445 33.890625 C25.43245845 31.55679523 25.3801424 29.22401365 25.32421875 26.890625 C25.31782883 26.16756165 25.3114389 25.44449829 25.30485535 24.69952393 C25.18520545 20.58668418 24.85802606 17.95595282 21.8125 15.0625 C18.5502858 14.0696522 16.44682693 13.91498211 13.125 14.6875 C10.14617727 16.45869189 9.31613603 17.93907516 7.8125 21.0625 C7.31055995 24.638124 7.31055995 24.638124 7.30078125 28.55078125 C7.28283005 29.25397995 7.26487885 29.95717865 7.24638367 30.6816864 C7.1924952 32.91273117 7.15845588 35.1435647 7.125 37.375 C7.09180776 38.89390947 7.05731633 40.41279114 7.02148438 41.93164062 C6.93434977 45.6419538 6.87410508 49.35132498 6.8125 53.0625 C1.5325 53.0625 -3.7475 53.0625 -9.1875 53.0625 C-9.1875 35.9025 -9.1875 18.7425 -9.1875 1.0625 C-5.90230525 -0.03256492 -3.45086585 -0.03710608 0 0 Z " fill="#E9ECE9" transform="translate(330.1875,301.9375)"/>
<path d="M0 0 C1.26714844 -0.01417969 2.53429687 -0.02835937 3.83984375 -0.04296875 C7.0625 0.1875 7.0625 0.1875 9.0625 2.1875 C9.30300903 4.59194946 9.30300903 4.59194946 9.28955078 7.64697266 C9.28939972 8.78800446 9.28924866 9.92903625 9.28909302 11.10464478 C9.27877045 12.34112762 9.26844788 13.57761047 9.2578125 14.8515625 C9.2549826 16.11390717 9.25215271 17.37625183 9.24923706 18.67684937 C9.23992131 22.03396944 9.22194835 25.39081912 9.1998291 28.74786377 C9.1793755 32.17303122 9.1702364 35.59822659 9.16015625 39.0234375 C9.13806458 45.74486671 9.10456377 52.46616773 9.0625 59.1875 C9.87517334 59.18226318 10.68784668 59.17702637 11.52514648 59.17163086 C15.18342322 59.15093006 18.84168767 59.13786197 22.5 59.125 C23.77939453 59.11662109 25.05878906 59.10824219 26.37695312 59.09960938 C27.59189453 59.09638672 28.80683594 59.09316406 30.05859375 59.08984375 C31.18450928 59.08460693 32.3104248 59.07937012 33.47045898 59.07397461 C36.0625 59.1875 36.0625 59.1875 37.0625 60.1875 C37.0625 64.8075 37.0625 69.4275 37.0625 74.1875 C22.2125 74.1875 7.3625 74.1875 -7.9375 74.1875 C-7.97760881 56.0092963 -7.97760881 56.0092963 -7.98632812 48.28710938 C-7.99231625 43.00869752 -7.99941572 37.73030293 -8.01293945 32.4519043 C-8.02376944 28.19848885 -8.02977707 23.94509191 -8.03237724 19.69166374 C-8.03423129 18.06528367 -8.03785152 16.43890466 -8.04323006 14.81253242 C-8.05044198 12.54239807 -8.05149088 10.27234115 -8.05102539 8.00219727 C-8.053246 6.70758072 -8.05546661 5.41296417 -8.05775452 4.07911682 C-7.83240249 -1.33965443 -4.76131693 0.02416912 0 0 Z " fill="#F2F3F0" transform="translate(114.9375,280.8125)"/>
<path d="M0 0 C4.98608771 3.61735775 7.14984151 6.2779618 8.1875 12.3125 C6.6127706 13.03976052 5.02725721 13.74370422 3.4375 14.4375 C2.11492187 15.02917969 2.11492187 15.02917969 0.765625 15.6328125 C-1.8125 16.3125 -1.8125 16.3125 -4.140625 15.4296875 C-4.96820313 14.87667969 -4.96820313 14.87667969 -5.8125 14.3125 C-5.8125 13.6525 -5.8125 12.9925 -5.8125 12.3125 C-10.1025 11.6525 -14.3925 10.9925 -18.8125 10.3125 C-19.1425 11.9625 -19.4725 13.6125 -19.8125 15.3125 C-16.66627454 18.45872546 -12.29174644 18.37423545 -8.01757812 18.9921875 C-1.91480979 19.99507007 3.08104245 21.68912035 7.09765625 26.69140625 C9.20801097 31.76684716 9.44930707 38.21426012 7.35546875 43.35546875 C5.87911899 45.59487569 4.0797152 47.4202848 2.1875 49.3125 C1.1975 49.3125 0.2075 49.3125 -0.8125 49.3125 C-0.8125 49.9725 -0.8125 50.6325 -0.8125 51.3125 C-8.69730784 54.30370176 -17.85264919 54.89880346 -25.8125 51.75 C-30.04678125 49.52226248 -33.3972968 46.46147408 -35.8125 42.3125 C-36.46875 39.58984375 -36.46875 39.58984375 -36.8125 37.3125 C-35.25490657 36.77717177 -33.69111955 36.25984622 -32.125 35.75 C-31.25488281 35.45996094 -30.38476562 35.16992188 -29.48828125 34.87109375 C-26.50050827 34.24736888 -24.70596147 34.37723973 -21.8125 35.3125 C-21.008125 36.158125 -20.20375 37.00375 -19.375 37.875 C-17.02498115 40.59527247 -17.02498115 40.59527247 -13.75 40.6875 C-11.34964681 40.38107193 -9.12215769 40.0231639 -6.8125 39.3125 C-7.3075 36.8375 -7.3075 36.8375 -7.8125 34.3125 C-11.76840557 32.88397854 -15.71874229 31.86928813 -19.8125 30.9375 C-25.81130594 29.45080708 -29.47872501 27.87965249 -33.6875 23.25 C-35.86708131 17.55887103 -35.53237872 11.6415194 -33.75 5.875 C-26.90358793 -3.1799321 -9.99063756 -4.71041467 0 0 Z " fill="#E8EBE8" transform="translate(213.8125,303.6875)"/>
<path d="M0 0 C0.75933838 0.01015137 1.51867676 0.02030273 2.30102539 0.03076172 C14.10940485 0.35407297 23.69635968 3.98492427 32.6875 11.75 C42.05707021 22.68116524 46.04398837 32.27689704 46.3125 46.6875 C46.35153442 47.87134277 46.35153442 47.87134277 46.39135742 49.07910156 C46.4089629 54.75899394 46.4089629 54.75899394 44.0390625 57.85546875 C40.21982767 60.61696011 37.66944251 60.85621449 32.9375 60.375 C30.0625 58.75 30.0625 58.75 27.9375 55.375 C27.4682265 51.85110361 27.30528785 48.37595862 27.16796875 44.82421875 C26.65170717 37.09779538 23.25964793 30.51757237 17.625 25.1875 C10.95204904 20.68713772 5.53765031 19.94285061 -2.27734375 19.93554688 C-7.158436 19.80022023 -9.64183493 18.86560432 -13.0625 15.375 C-14.5625 12.5 -14.5625 12.5 -15.0625 9.375 C-12.24072199 1.37996231 -8.05556748 -0.1538098 0 0 Z " fill="#ECEEEB" transform="translate(214.0625,204.625)"/>
<path d="M0 0 C1.39456452 0.00667256 2.78911118 0.01863093 4.18359375 0.03515625 C4.89451172 0.03966797 5.60542969 0.04417969 6.33789062 0.04882812 C8.09899388 0.06064761 9.86005411 0.07858362 11.62109375 0.09765625 C11.62109375 4.71765625 11.62109375 9.33765625 11.62109375 14.09765625 C15.58109375 14.09765625 19.54109375 14.09765625 23.62109375 14.09765625 C23.62109375 18.38765625 23.62109375 22.67765625 23.62109375 27.09765625 C19.66109375 27.09765625 15.70109375 27.09765625 11.62109375 27.09765625 C11.70768798 31.05710259 11.81452464 35.01416983 11.93359375 38.97265625 C11.95615234 40.10058594 11.97871094 41.22851562 12.00195312 42.390625 C12.05512695 44.00517578 12.05512695 44.00517578 12.109375 45.65234375 C12.13555908 46.64733887 12.16174316 47.64233398 12.1887207 48.66748047 C12.33140381 49.46943848 12.47408691 50.27139648 12.62109375 51.09765625 C15.52201877 53.03160626 16.51784112 53.39897566 19.80859375 53.72265625 C21.69578125 53.90828125 21.69578125 53.90828125 23.62109375 54.09765625 C23.62109375 58.05765625 23.62109375 62.01765625 23.62109375 66.09765625 C18.71733655 68.54953485 14.7443165 68.88565168 9.5 67.5625 C5.27102902 66.09954785 1.82800011 64.30456261 -1.37890625 61.09765625 C-1.37890625 60.10765625 -1.37890625 59.11765625 -1.37890625 58.09765625 C-2.03890625 58.09765625 -2.69890625 58.09765625 -3.37890625 58.09765625 C-4.56026099 51.61415818 -4.49213599 45.23551118 -4.44140625 38.66015625 C-4.43689453 37.54705078 -4.43238281 36.43394531 -4.42773438 35.28710938 C-4.41601818 32.55723524 -4.39961324 29.82747451 -4.37890625 27.09765625 C-7.01890625 27.09765625 -9.65890625 27.09765625 -12.37890625 27.09765625 C-12.37890625 22.80765625 -12.37890625 18.51765625 -12.37890625 14.09765625 C-9.73890625 14.09765625 -7.09890625 14.09765625 -4.37890625 14.09765625 C-4.39050781 13.17082031 -4.40210938 12.24398438 -4.4140625 11.2890625 C-4.42308594 10.09152344 -4.43210938 8.89398438 -4.44140625 7.66015625 C-4.45300781 6.46519531 -4.46460938 5.27023437 -4.4765625 4.0390625 C-4.33727592 -0.15624931 -4.27071988 0.12343121 0 0 Z " fill="#E5E8E4" transform="translate(236.37890625,288.90234375)"/>
<path d="M0 0 C5.28 0 10.56 0 16 0 C16.02325149 4.69163447 16.04307207 9.38306032 16.05493164 14.07470703 C16.05988784 15.66293016 16.06665476 17.25114891 16.07543945 18.83935547 C16.13343926 29.61367243 15.77914507 40.25147898 15 51 C10.38 51 5.76 51 1 51 C0.34728095 47.0836857 -0.12437475 44.02866003 -0.11352539 40.18798828 C-0.11344986 39.28750763 -0.11337433 38.38702698 -0.11329651 37.45925903 C-0.10813522 36.50590668 -0.10297394 35.55255432 -0.09765625 34.5703125 C-0.0962413 33.57998016 -0.09482635 32.58964783 -0.09336853 31.56930542 C-0.08779252 28.42117227 -0.07524442 25.27311148 -0.0625 22.125 C-0.0574819 19.98437603 -0.05291954 17.84375094 -0.04882812 15.703125 C-0.03783094 10.46872232 -0.02058284 5.23437341 0 0 Z " fill="#F3F5F2" transform="translate(381,281)"/>
<path d="M0 0 C6.93 0.495 6.93 0.495 14 1 C14 18.16 14 35.32 14 53 C9.05 53 4.1 53 -1 53 C-1.02464071 45.61271409 -1.0428316 38.22545188 -1.05493164 30.83813477 C-1.05997363 28.32283105 -1.06680703 25.80753028 -1.07543945 23.29223633 C-1.08751094 19.68570225 -1.09322949 16.07920677 -1.09765625 12.47265625 C-1.10281754 11.34038101 -1.10797882 10.20810577 -1.11329651 9.04151917 C-1.11337204 8.00051559 -1.11344757 6.95951202 -1.11352539 5.88696289 C-1.115746 4.96540909 -1.11796661 4.04385529 -1.12025452 3.09437561 C-1 1 -1 1 0 0 Z " fill="#EEF1ED" transform="translate(158,302)"/>
<path d="M0 0 C2.96735665 2.06424811 4.65668267 3.575104 5.51953125 7.15625 C5.75454938 10.43557268 5.73423121 12.91494158 3.85546875 15.69140625 C1.33832676 18.02258524 -0.75238226 18.96533352 -4.125 19.4375 C-6.85209482 19.02250731 -8.66576165 18.43645437 -11 17 C-11 16.34 -11 15.68 -11 15 C-11.66 15 -12.32 15 -13 15 C-14.33526012 7.83815029 -14.33526012 7.83815029 -12.875 4.1875 C-8.98045434 -0.3561366 -5.83981164 -1.94660388 0 0 Z " fill="#E6E9E6" transform="translate(169,280)"/>
<path d="M0 0 C3 1.375 3 1.375 5 4 C5.64649822 7.44417634 5.63632029 10.55469825 5 14 C3.11484777 16.57637471 1.80665143 17.59667428 -1 19 C-5.31147425 19.48809142 -7.29946463 19.50255798 -10.875 16.9375 C-13.41733802 13.42309156 -14 11.32499429 -14 7 C-11.11983229 0.51962265 -6.82338775 -1.00890558 0 0 Z " fill="#E3E7E5" transform="translate(393,338)"/>
<path d="M0 0 C4.62 0 9.24 0 14 0 C12 2 12 2 1 3 C1 16.2 1 29.4 1 43 C0.67 43 0.34 43 0 43 C0 28.81 0 14.62 0 0 Z " fill="#A3B2AE" transform="translate(381,281)"/>
<path d="M0 0 C0.83595703 0.02707031 1.67191406 0.05414063 2.53320312 0.08203125 C4.58575247 0.15240437 6.63696591 0.26001678 8.6875 0.375 C8.6875 0.705 8.6875 1.035 8.6875 1.375 C3.4075 1.375 -1.8725 1.375 -7.3125 1.375 C-7.9725 2.695 -8.6325 4.015 -9.3125 5.375 C-9.84875 5.82875 -10.385 6.2825 -10.9375 6.75 C-12.9927674 9.17895238 -12.51691794 11.30873089 -12.3125 14.375 C-14.3125 12.375 -14.3125 12.375 -14.75 9.625 C-14.28204926 6.14879448 -13.29581798 4.2592478 -10.99487305 1.62304688 C-7.70022728 -0.82104384 -3.92644131 -0.24172251 0 0 Z " fill="#A3AFAC" transform="translate(238.3125,138.625)"/>
<path d="M0 0 C16.8929385 -0.18451025 16.8929385 -0.18451025 24 1 C24 1.33 24 1.66 24 2 C22.39679026 2.19551338 20.79237014 2.38111983 19.1875 2.5625 C18.29417969 2.66691406 17.40085938 2.77132812 16.48046875 2.87890625 C14 3 14 3 11 2 C9.10787263 1.77820215 7.21115528 1.59385985 5.3125 1.4375 C4.31863281 1.35371094 3.32476562 1.26992187 2.30078125 1.18359375 C1.16189453 1.09271484 1.16189453 1.09271484 0 1 C0 0.67 0 0.34 0 0 Z " fill="#8E9895" transform="translate(215,172)"/>
<path d="M0 0 C4.62 0 9.24 0 14 0 C11.41073669 2.58926331 9.97294721 2.37398043 6.375 2.625 C5.37210937 2.69976562 4.36921875 2.77453125 3.3359375 2.8515625 C2.17964844 2.92503906 2.17964844 2.92503906 1 3 C0.67 2.01 0.34 1.02 0 0 Z " fill="#A2A7A5" transform="translate(381,281)"/>
<path d="M0 0 C0.90105469 0.11085938 1.80210937 0.22171875 2.73046875 0.3359375 C3.76107422 0.47902344 3.76107422 0.47902344 4.8125 0.625 C4.8125 0.955 4.8125 1.285 4.8125 1.625 C4.19761719 1.75777344 3.58273437 1.89054687 2.94921875 2.02734375 C1.73685547 2.29224609 1.73685547 2.29224609 0.5 2.5625 C-0.70076172 2.82353516 -0.70076172 2.82353516 -1.92578125 3.08984375 C-4.332901 3.62386159 -4.332901 3.62386159 -7.1875 4.625 C-7.5175 3.635 -7.8475 2.645 -8.1875 1.625 C-4.73535147 -0.67643236 -3.95270676 -0.51333854 0 0 Z " fill="#B7C0BD" transform="translate(288.1875,312.375)"/>
<path d="M0 0 C-0.66 1.65 -1.32 3.3 -2 5 C-2.33 5 -2.66 5 -3 5 C-3.33 6.65 -3.66 8.3 -4 10 C-4.66 10 -5.32 10 -6 10 C-5.38909774 3.52443609 -5.38909774 3.52443609 -3.5625 1.0625 C-2 0 -2 0 0 0 Z " fill="#AFB7B5" transform="translate(161,281)"/>
<path d="M0 0 C1.984375 1.17578125 1.984375 1.17578125 4 3 C4.390625 5.48046875 4.390625 5.48046875 4.25 8.1875 C4.21390625 9.08855469 4.1778125 9.98960937 4.140625 10.91796875 C4.09421875 11.60503906 4.0478125 12.29210937 4 13 C3.67 13 3.34 13 3 13 C3 10.36 3 7.72 3 5 C2.34 5 1.68 5 1 5 C0.67 3.35 0.34 1.7 0 0 Z " fill="#9DACA9" transform="translate(394,339)"/>
<path d="M0 0 C-2.17384564 2.17384564 -4.31270474 3.52198761 -7 5 C-7.66 5 -8.32 5 -9 5 C-6.81610567 0.16423399 -5.20641855 -0.13701101 0 0 Z " fill="#D4DAD9" transform="translate(210,206)"/>
<path d="M0 0 C2.31 0.33 4.62 0.66 7 1 C4.38058783 2.74627478 2.96175123 3.38722388 0 4 C0 2.68 0 1.36 0 0 Z " fill="#B3BDBD" transform="translate(210,316)"/>
<path d="M0 0 C2.0625 1.75 2.0625 1.75 4 4 C3.75 6.25 3.75 6.25 3 8 C0.9375 5.6875 0.9375 5.6875 -1 3 C-0.67 2.01 -0.34 1.02 0 0 Z " fill="#B9C3BE" transform="translate(310,311)"/>
</svg>
